<svg width="310" height="90" viewBox="0 0 310 90" fill="none" xmlns="http://www.w3.org/2000/svg">
<rect x="16.2251" y="13.1891" width="270" height="55" fill="#89DCFF"/>
<rect x="8.37939" y="47.1891" width="48" height="11.8503" transform="rotate(45 8.37939 47.1891)" fill="black"/>
<rect x="275.568" width="48" height="14.6277" transform="rotate(45 275.568 0)" fill="black"/>
<path d="M54.4372 44.28C54.4372 45.264 54.7612 46.02 55.4092 46.548C56.0812 47.076 56.9812 47.34 58.1092 47.34C59.1172 47.34 59.8612 47.172 60.3412 46.836C60.8212 46.5 61.2292 45.996 61.5652 45.324C61.8772 44.7 62.2972 44.388 62.8252 44.388H70.6012C70.8172 44.388 70.9972 44.472 71.1412 44.64C71.3092 44.784 71.3932 44.964 71.3932 45.18C71.3932 46.644 70.9012 48.084 69.9172 49.5C68.9332 50.892 67.4332 52.056 65.4172 52.992C63.4252 53.904 60.9892 54.36 58.1092 54.36C55.5412 54.36 53.2492 53.976 51.2332 53.208C49.2412 52.416 47.6572 51.216 46.4812 49.608C45.3052 47.976 44.7172 45.948 44.7172 43.524V39.276C44.7172 36.852 45.3052 34.836 46.4812 33.228C47.6572 31.596 49.2412 30.396 51.2332 29.628C53.2492 28.836 55.5412 28.44 58.1092 28.44C60.9892 28.44 63.4252 28.908 65.4172 29.844C67.4332 30.756 68.9332 31.92 69.9172 33.336C70.9012 34.728 71.3932 36.156 71.3932 37.62C71.3932 37.836 71.3092 38.028 71.1412 38.196C70.9972 38.34 70.8172 38.412 70.6012 38.412H62.8252C62.2972 38.412 61.8772 38.1 61.5652 37.476C61.2292 36.804 60.8212 36.3 60.3412 35.964C59.8612 35.628 59.1172 35.46 58.1092 35.46C56.9812 35.46 56.0812 35.724 55.4092 36.252C54.7612 36.78 54.4372 37.536 54.4372 38.52V44.28ZM101.727 43.596C101.727 47.268 100.503 49.98 98.0552 51.732C95.6312 53.484 92.3912 54.36 88.3352 54.36C84.2792 54.36 81.0272 53.484 78.5792 51.732C76.1552 49.98 74.9432 47.244 74.9432 43.524V39.276C74.9432 36.828 75.5192 34.8 76.6712 33.192C77.8472 31.56 79.4432 30.36 81.4592 29.592C83.4752 28.824 85.7672 28.44 88.3352 28.44C90.9032 28.44 93.1832 28.824 95.1752 29.592C97.1912 30.36 98.7872 31.548 99.9632 33.156C101.139 34.764 101.727 36.78 101.727 39.204V43.596ZM84.6632 44.28C84.6632 45.264 84.9872 46.02 85.6352 46.548C86.3072 47.076 87.2072 47.34 88.3352 47.34C89.4632 47.34 90.3512 47.076 90.9992 46.548C91.6712 45.996 92.0072 45.228 92.0072 44.244V38.556C92.0072 37.572 91.6712 36.816 90.9992 36.288C90.3512 35.736 89.4632 35.46 88.3352 35.46C87.2072 35.46 86.3072 35.724 85.6352 36.252C84.9872 36.78 84.6632 37.536 84.6632 38.52V44.28ZM130.189 28.8C130.453 28.8 130.681 28.896 130.873 29.088C131.065 29.28 131.161 29.508 131.161 29.772V53.028C131.161 53.292 131.065 53.52 130.873 53.712C130.681 53.904 130.453 54 130.189 54H124.393C123.817 54 123.337 53.748 122.953 53.244L115.105 43.236V53.028C115.105 53.292 115.009 53.52 114.817 53.712C114.625 53.904 114.397 54 114.133 54H107.437C107.173 54 106.945 53.904 106.753 53.712C106.561 53.52 106.465 53.292 106.465 53.028V29.772C106.465 29.508 106.561 29.28 106.753 29.088C106.945 28.896 107.173 28.8 107.437 28.8H113.269C113.845 28.8 114.313 29.04 114.673 29.52L122.521 40.356V29.772C122.521 29.508 122.617 29.28 122.809 29.088C123.001 28.896 123.229 28.8 123.493 28.8H130.189ZM161.675 28.8C161.939 28.8 162.167 28.896 162.359 29.088C162.551 29.28 162.647 29.508 162.647 29.772V35.244C162.647 35.508 162.551 35.736 162.359 35.928C162.167 36.12 161.939 36.216 161.675 36.216H147.527V38.52H159.335C159.599 38.52 159.827 38.616 160.019 38.808C160.211 39 160.307 39.228 160.307 39.492V44.928C160.307 45.192 160.211 45.42 160.019 45.612C159.827 45.804 159.599 45.9 159.335 45.9H147.527V53.028C147.527 53.292 147.431 53.52 147.239 53.712C147.047 53.904 146.819 54 146.555 54H138.779C138.515 54 138.287 53.904 138.095 53.712C137.903 53.52 137.807 53.292 137.807 53.028V29.772C137.807 29.508 137.903 29.28 138.095 29.088C138.287 28.896 138.515 28.8 138.779 28.8H161.675ZM184.989 46.62H191.505C191.769 46.62 191.997 46.716 192.189 46.908C192.381 47.1 192.477 47.328 192.477 47.592V53.028C192.477 53.292 192.381 53.52 192.189 53.712C191.997 53.904 191.769 54 191.505 54H168.681C168.417 54 168.189 53.904 167.997 53.712C167.805 53.52 167.709 53.292 167.709 53.028V47.592C167.709 47.328 167.805 47.1 167.997 46.908C168.189 46.716 168.417 46.62 168.681 46.62H175.269V36.18H168.681C168.417 36.18 168.189 36.084 167.997 35.892C167.805 35.7 167.709 35.472 167.709 35.208V29.772C167.709 29.508 167.805 29.28 167.997 29.088C168.189 28.896 168.417 28.8 168.681 28.8H191.505C191.769 28.8 191.997 28.896 192.189 29.088C192.381 29.28 192.477 29.508 192.477 29.772V35.208C192.477 35.472 192.381 35.7 192.189 35.892C191.997 36.084 191.769 36.18 191.505 36.18H184.989V46.62ZM224.971 52.884C225.019 52.98 225.043 53.088 225.043 53.208C225.043 53.424 224.959 53.616 224.791 53.784C224.647 53.928 224.467 54 224.251 54H216.079C215.743 54 215.431 53.916 215.143 53.748C214.879 53.58 214.687 53.364 214.567 53.1L211.399 45.972H208.375V53.028C208.375 53.292 208.279 53.52 208.087 53.712C207.895 53.904 207.667 54 207.403 54H199.627C199.363 54 199.135 53.904 198.943 53.712C198.751 53.52 198.655 53.292 198.655 53.028V29.772C198.655 29.508 198.751 29.28 198.943 29.088C199.135 28.896 199.363 28.8 199.627 28.8H213.631C215.791 28.8 217.675 29.148 219.283 29.844C220.915 30.54 222.163 31.548 223.027 32.868C223.891 34.188 224.323 35.736 224.323 37.512C224.323 40.776 223.063 43.14 220.543 44.604L224.971 52.884ZM212.875 39.312C213.403 39.312 213.811 39.144 214.099 38.808C214.387 38.448 214.531 38.004 214.531 37.476C214.531 36.948 214.387 36.492 214.099 36.108C213.835 35.7 213.427 35.496 212.875 35.496H208.375V39.312H212.875ZM245.981 29.772C246.341 29.124 246.857 28.8 247.529 28.8H254.117C254.381 28.8 254.609 28.896 254.801 29.088C254.993 29.28 255.089 29.508 255.089 29.772V53.028C255.089 53.292 254.993 53.52 254.801 53.712C254.609 53.904 254.381 54 254.117 54H247.601C247.337 54 247.109 53.904 246.917 53.712C246.725 53.52 246.629 53.292 246.629 53.028V41.868L244.001 47.052C243.929 47.22 243.761 47.412 243.497 47.628C243.233 47.844 242.897 47.952 242.489 47.952H240.041C239.633 47.952 239.297 47.844 239.033 47.628C238.769 47.412 238.601 47.22 238.529 47.052L235.901 41.868V53.028C235.901 53.292 235.805 53.52 235.613 53.712C235.421 53.904 235.193 54 234.929 54H228.413C228.149 54 227.921 53.904 227.729 53.712C227.537 53.52 227.441 53.292 227.441 53.028V29.772C227.441 29.508 227.537 29.28 227.729 29.088C227.921 28.896 228.149 28.8 228.413 28.8H235.001C235.673 28.8 236.189 29.124 236.549 29.772L241.265 38.412L245.981 29.772Z" fill="#131313"/>
</svg>
