<svg xmlns="http://www.w3.org/2000/svg" width="400" height="565.5394525">
  <g fill-rule="evenodd">
    <path d="M106.438 71.395c-.118.192-.727 2.643-4.637 18.646-.65 2.658-1.765 7.219-2.479 10.136-.714 2.917-1.868 7.637-2.564 10.489-.697 2.852-2.075 8.474-3.062 12.493-.987 4.018-2.208 9.004-2.711 11.078-.504 2.074-1.815 7.431-2.913 11.903-1.098 4.473-2.655 10.837-3.46 14.143-.805 3.306-2.464 10.094-3.687 15.085-1.224 4.991-2.743 11.197-3.376 13.789-1.085 4.442-1.928 7.885-5.921 24.161-.906 3.694-2.061 8.414-2.565 10.489-.504 2.074-1.565 6.423-2.358 9.664-.793 3.241-1.959 8.014-2.591 10.607-.632 2.593-1.958 8.002-2.946 12.021-.987 4.019-2.208 9.004-2.711 11.078-.504 2.075-1.827 7.484-2.941 12.022-1.113 4.537-2.763 11.272-3.666 14.967-.903 3.695-2.656 10.855-3.895 15.911-2.306 9.404-4.011 16.435-4.152 17.119-.05.241 3.591 4.29 9.821 10.923 5.445 5.796 10.213 10.874 10.596 11.284 5.872 6.28 8.054 8.608 10.86 11.587 1.831 1.945 6.763 7.195 10.959 11.668 4.195 4.472 9.074 9.67 10.84 11.549 1.767 1.88 5.053 5.381 7.304 7.779 2.25 2.398 4.795 5.103 5.654 6.01.86.908 4.837 5.151 8.838 9.429 4.001 4.278 8.185 8.735 9.297 9.904 2.325 2.445 3.347 3.531 10.748 11.428 7.141 7.619 16.535 17.618 18.489 19.681.86.908 6.383 6.795 12.274 13.082 5.891 6.288 11.668 12.44 12.838 13.672 4.42 4.653 16.057 17.073 16.707 17.831.944 1.099.92 1.111 3.788-1.98 1.414-1.523 4.069-4.361 5.901-6.305 3.118-3.309 7.066-7.51 14.735-15.675 1.766-1.88 6.641-7.077 10.835-11.55 4.194-4.472 8.38-8.927 9.301-9.9.922-.972 3.265-3.464 5.208-5.539 5.383-5.748 11.087-11.822 12.949-13.789.92-.972 3.307-3.518 5.303-5.657 1.997-2.139 4.491-4.791 5.542-5.893 1.051-1.102 5.086-5.397 8.965-9.546 7.422-7.938 9.114-9.74 12.385-13.195 1.107-1.169 2.759-2.922 3.67-3.894 2.945-3.139 9.759-10.397 13.059-13.907 1.767-1.88 7.44-7.925 12.606-13.435 5.166-5.51 10.839-11.556 12.606-13.436 1.767-1.879 5.01-5.33 7.207-7.668 2.198-2.338 5.48-5.827 7.295-7.754 5.328-5.657 5.897-6.312 5.818-6.71-.127-.639-1.127-4.798-2.756-11.456-.857-3.501-2.128-8.698-2.826-11.55-.697-2.852-2.023-8.262-2.946-12.021-.923-3.76-2.196-8.957-2.828-11.55-.633-2.593-1.892-7.737-2.798-11.432-2.072-8.449-3.52-14.375-4.984-20.389-.631-2.593-1.903-7.79-2.826-11.55-.924-3.759-2.196-8.957-2.829-11.55-.632-2.592-1.904-7.79-2.828-11.549-2.418-9.85-4.355-17.765-5.539-22.629-1.925-7.915-3.385-13.888-5.067-20.742-1.751-7.131-3.7-15.088-5.659-23.1-.634-2.592-2.013-8.214-3.064-12.492-1.052-4.278-2.33-9.502-2.841-11.609-.511-2.107-1.348-5.554-1.859-7.661-.512-2.106-1.894-7.754-3.072-12.551-1.178-4.797-2.789-11.373-3.58-14.614-.791-3.241-2.087-8.492-2.88-11.668l-1.442-5.775-93.504-.059c-55-.035-93.558.028-93.635.152m181.51 13.932c.275 1.102 1.627 6.618 3.004 12.257 1.378 5.639 3.519 14.39 4.759 19.446 2.463 10.049 4.109 16.771 6.233 25.457.761 3.111 2.033 8.309 2.827 11.55.793 3.241 1.749 7.165 2.124 8.721.374 1.555 1.489 6.116 2.476 10.135 2.214 9.015 4.456 18.159 6.127 24.986.698 2.852 1.971 8.049 2.829 11.549.859 3.501 1.972 8.062 2.476 10.136.503 2.074 1.722 7.059 2.71 11.078.987 4.019 2.26 9.217 2.828 11.55 1.704 7.001 3.521 14.429 5.42 22.157.987 4.019 2.207 9.004 2.711 11.078s1.774 7.272 2.823 11.55c1.048 4.278 2.711 11.067 3.694 15.085.984 4.019 2.518 10.275 3.408 13.901l1.618 6.594-.783.831c-.43.457-4.168 4.44-8.305 8.85-4.137 4.411-10.704 11.409-14.593 15.552-3.89 4.143-7.968 8.489-9.063 9.659-1.096 1.17-3.437 3.665-5.202 5.545-1.766 1.879-6.748 7.183-11.07 11.785-4.323 4.602-9.307 9.906-11.076 11.786-3.681 3.911-16.922 18.02-21.676 23.097-1.759 1.878-4.1 4.372-5.202 5.541-1.102 1.17-3.594 3.821-5.539 5.893-1.944 2.072-5.233 5.571-7.309 7.776-2.075 2.205-6.156 6.555-9.068 9.667-2.913 3.111-6.102 6.505-7.088 7.542-.985 1.037-3.479 3.689-5.541 5.893-2.062 2.204-4.449 4.75-5.304 5.657-2.087 2.214-8.969 9.545-13.054 13.907-1.822 1.945-3.95 4.205-4.729 5.022l-1.417 1.486-10.134-10.795c-5.573-5.937-10.937-11.644-11.92-12.682-.983-1.038-5.269-5.6-9.525-10.138-4.256-4.537-9.183-9.788-10.95-11.667-1.768-1.88-6.598-7.024-10.735-11.432s-8.967-9.552-10.733-11.432c-1.767-1.88-5.849-6.229-9.073-9.664-7.749-8.259-8.364-8.913-12.509-13.318-1.952-2.074-5.389-5.734-7.638-8.132-2.249-2.398-4.792-5.103-5.65-6.011-2.144-2.267-19.255-20.497-21.564-22.975-1.031-1.105-3.372-3.601-5.203-5.545-1.831-1.945-5.964-6.347-9.185-9.782-3.22-3.436-6.655-7.095-7.632-8.132-.978-1.038-2.175-2.31-2.661-2.829l-.884-.943 1.533-6.246c3.537-14.414 6.892-28.125 10.585-43.253.601-2.463 1.662-6.812 2.358-9.664.697-2.852 2.021-8.262 2.944-12.021 1.889-7.696 3.949-16.109 5.657-23.1.634-2.593 1.96-8.002 2.948-12.021.987-4.019 2.259-9.216 2.826-11.55.568-2.333 1.629-6.682 2.359-9.664.729-2.982 1.949-7.967 2.71-11.078.761-3.112 2.033-8.309 2.828-11.55 1.86-7.587 4.217-17.215 5.567-22.746.586-2.398 1.806-7.384 2.713-11.078.906-3.695 2.02-8.256 2.474-10.136.455-1.88 1.728-7.077 2.828-11.55 1.1-4.472 2.373-9.67 2.828-11.55 1.792-7.4 5.289-21.583 5.39-21.862.085-.236 17.708-.283 87.504-.236l87.396.06.5 2.003m-102.625 5.436c-5.846 1.152-9.101 8.156-6.364 13.694 4.224 8.546 17.373 6.454 18.04-2.869l.119-1.657-4.688.064-4.687.064v3.3l2.711.118 2.71.118-1.214 1.216c-3.833 3.837-10.326.85-10.328-4.752-.002-5.529 6.515-8.122 10.849-4.317l.845.742 1.221-1.233 1.22-1.233-1.105-1.012c-2.29-2.097-5.796-2.94-9.329-2.243m70.092.204c-4.881 1.613-7.666 6.641-6.408 11.567 2.71 10.608 18.185 9.225 18.715-1.673.338-6.931-5.958-11.992-12.307-9.894m-123.594.312c.611 1.644 3.522 9.819 5.286 14.847l1.137 3.238 1.714.003c1.556.002 1.734-.046 1.934-.528.342-.82 6.37-17.628 6.37-17.759 0-.064-.813-.085-1.806-.047l-1.806.069-.804 2.239c-.442 1.232-1.001 2.77-1.242 3.418-.241.648-.876 2.398-1.411 3.889-.535 1.491-1.046 2.784-1.136 2.874-.09.09-1.171-2.694-2.402-6.186l-2.24-6.35-1.852-.001c-1.383-.001-1.824.074-1.742.294m29.169 8.898v9.192h3.536V90.984h-3.536v9.193m49.263 0v9.192h3.536V90.984h-3.536v9.193m17.679 0v9.192h8.721v-3.284l-2.534-.066-2.534-.067-.062-7.484-.062-7.484h-3.529v9.193m33.431-5.358c4.433 2.934 3.525 9.92-1.478 11.374-5.735 1.667-10.057-5.564-6.122-10.241 1.681-1.998 5.446-2.559 7.6-1.133m-138.686 2.483c-2.256 1.42-2.107 4.687.262 5.735 3.338 1.476 6.145-2.584 3.568-5.161-1.049-1.049-2.686-1.294-3.83-.574m151.43.11c-3.196 2.135-.833 7.086 2.732 5.725 3.336-1.274 2.493-6.26-1.058-6.26-.516 0-1.202.219-1.674.535m-147.766 19.349c-8.764 2.386-9.989 14.165-1.886 18.139 3.403 1.669 8.425.913 11.342-1.708l1.033-.928-1.221-1.233-1.22-1.233-.889.78c-4.572 4.014-11.466.778-10.859-5.098.538-5.215 6.696-7.342 10.923-3.772.968.817.975.816 2.29-.52l1.128-1.145-.956-.819c-2.732-2.339-6.563-3.313-9.685-2.463m27.723-.073c-7.305 1.835-9.757 11.278-4.275 16.463 5.41 5.116 14.374 2.364 15.89-4.877 1.457-6.964-4.874-13.279-11.615-11.586m116.441 0c-4.735 1.189-7.949 6.053-7.197 10.89 1.668 10.724 17.048 10.892 18.881.207 1.154-6.731-5.166-12.734-11.684-11.097m-93.722 9.417v9.193h3.527l.063-5.926.063-5.925 3.859 5.925 3.859 5.926h3.478v-18.386h-3.535v5.943c0 4.977-.052 5.888-.316 5.599-.173-.19-1.948-2.865-3.945-5.944l-3.63-5.598h-3.423v9.193m26.871 0v9.193h3.535v-8.25h5.657v-3.3h-5.657v-3.285l2.77-.067 2.769-.066.07-1.709.069-1.709H203.654v9.193m19.563 0v9.193h3.536v-18.386h-3.536v9.193m15.322-.004v9.248l4.301-.115c5.216-.139 5.723-.283 7.623-2.167 4.543-4.505 3.05-13.265-2.633-15.449-1.188-.456-1.98-.553-5.343-.651l-3.948-.115v9.249m-79.769-5.677c5.373 2.44 4.451 10.64-1.333 11.848-5.83 1.218-9.535-6.59-5.13-10.81 1.573-1.507 4.423-1.965 6.463-1.038m116.422-.007c4.205 1.921 4.789 8.101 1.02 10.807-5.075 3.644-11.542-2.093-8.825-7.83 1.406-2.971 4.9-4.303 7.805-2.977m-29.281.281c2.555.709 4.074 3.762 3.482 6.998-.518 2.829-1.978 3.995-5.296 4.229l-2.023.143v-11.62l1.473.001c.811.001 1.874.113 2.364.249m-132.77 21.185c0 .122 4.844 7.68 10.764 16.795 5.92 9.115 12.372 19.065 14.338 22.112 1.966 3.046 9.568 14.767 16.894 26.046 7.326 11.278 16.693 25.704 20.816 32.056 4.123 6.353 7.788 11.976 8.143 12.496l.646.945 4.329-.306c3.782-.267 15.105-.259 24.817.018l1.63.047 7.418-11.432c4.08-6.288 20.185-31.078 35.788-55.09 15.604-24.011 28.371-43.714 28.371-43.783 0-.069-39.14-.125-86.977-.125-54.109 0-86.977.083-86.977.221m88.862 36.458l1.719 6.39 6.036 1.601c3.319.881 6.397 1.701 6.84 1.823l.805.221-1.63.756c-.897.416-3.975 1.806-6.84 3.089l-5.209 2.333-1.716 5.669c-.943 3.119-1.795 5.818-1.891 6-.177.332-.346-.167-2.712-7.998l-1.107-3.661-4.159-1.863c-7.338-3.285-9.249-4.207-9.059-4.37.101-.088 3.116-.935 6.699-1.884l6.513-1.724 1.599-5.915c.879-3.253 1.698-6.28 1.819-6.727.303-1.119.32-1.073 2.293 6.26m-108.426-4.06c0 .051-1.226 5.169-2.723 11.373-3.063 12.688-3.678 15.24-5.05 20.946-.53 2.204-1.49 6.181-2.134 8.839-2.118 8.738-3.954 16.339-4.584 18.975-.341 1.426-.981 4.077-1.421 5.892-.441 1.815-1.287 5.316-1.881 7.779-.593 2.463-1.605 6.653-2.249 9.31-.643 2.658-1.706 7.06-2.362 9.782-.656 2.723-1.667 6.913-2.245 9.311-.579 2.398-1.225 5.079-1.435 5.958-.479 2.001-.463 2.012 1.36.975 22.697-12.913 59.304-23.921 91.371-27.476 1.458-.162 2.652-.376 2.652-.476 0-.1-2.465-3.075-5.476-6.611-3.012-3.537-8.236-9.674-11.609-13.638-3.373-3.964-11.542-13.56-18.154-21.325-16.519-19.399-24.978-29.349-29.699-34.933-3.51-4.149-4.361-5.064-4.361-4.681m207.982 5.288c-2.481 2.94-8.035 9.482-12.342 14.538-4.307 5.056-12.793 15.027-18.859 22.157-6.065 7.13-16.024 18.837-22.131 26.015-6.106 7.178-11.103 13.123-11.103 13.211 0 .089 1.194.293 2.652.455 32.106 3.559 68.795 14.59 91.36 27.468.823.469 1.551.853 1.618.853.181 0-.082-1.243-1.47-6.953-.694-2.852-1.642-6.777-2.108-8.721-.815-3.402-1.548-6.44-4.583-18.975-.768-3.176-1.626-6.73-1.905-7.896-.279-1.167-1.035-4.296-1.679-6.954-.645-2.657-1.439-5.946-1.765-7.307-.325-1.361-1.003-4.172-1.506-6.246-.503-2.074-1.246-5.15-1.65-6.836-.405-1.685-1.107-4.602-1.562-6.482-.455-1.88-1.555-6.44-2.446-10.135-.89-3.695-2.003-8.309-2.472-10.254-1.085-4.494-2.91-12.093-3.071-12.787-.191-.823-.198-.815-4.978 4.849m-190.065 47.773c.555 2.075 1.084 3.858 1.177 3.963.143.162 4.978 1.528 11.852 3.349 1.991.527 2.385.249-5.018 3.54-3.435 1.528-6.421 2.946-6.635 3.152-.317.305-1.897 5.152-3.523 10.805-.334 1.161-.566 1.267-.773.353-.08-.356-.873-3.023-1.762-5.927l-1.615-5.28-6.458-2.893c-3.552-1.592-6.609-2.987-6.792-3.102-.235-.146.148-.336 1.296-.64 6.936-1.838 11.739-3.195 11.882-3.357.094-.105.943-3.055 1.887-6.555.944-3.501 1.77-6.46 1.836-6.576.116-.203.451.958 2.646 9.168m180.132-7.719c.201.745.975 3.636 1.721 6.423.745 2.787 1.436 5.158 1.535 5.268.162.18 12.768 3.674 13.297 3.684.561.012-.623.597-6.47 3.199-3.436 1.529-6.416 2.923-6.623 3.097-.207.174-1.158 2.914-2.114 6.088s-1.796 5.771-1.868 5.771c-.072 0-.924-2.652-1.893-5.894l-1.763-5.893-1.028-.485c-.566-.266-3.536-1.604-6.6-2.973-6.642-2.967-6.325-2.729-4.343-3.254 6.849-1.815 11.71-3.187 11.858-3.349.152-.165 1.018-3.275 3.092-11.093.612-2.309.721-2.363 1.199-.589M189.081 255.05c-1.208.099-2.249.232-2.312.295-.064.064 1.943 3.282 4.46 7.152 9.186 14.127 8.666 13.374 9.001 13.019.578-.611 13.129-20.043 13.018-20.155-.48-.479-19.174-.72-24.167-.311m-36.577 3.313c-27.226 4.321-44.684 9.167-60.106 16.686l-2.71 1.321 7.441.062 7.442.062 2.576-1.543c11.841-7.096 25.562-12.151 42.529-15.668 4.957-1.028 6.337-1.476 2.828-.92m6.482.67c-21.911 4.295-38.553 9.896-48.88 16.453l-1.502.954 2.209.135c1.216.074 5.816.247 10.224.384 4.408.136 9.605.309 11.55.382l3.536.134 1.516-1.916c5.106-6.456 14.367-12.788 23.822-16.288 3.998-1.479 3.903-1.488-2.475-.238m79.67.261c9.982 3.826 19.028 10.12 24.161 16.807l1.06 1.382 3.536-.138c1.945-.076 7.142-.25 11.55-.386 4.408-.137 9.008-.31 10.224-.384l2.209-.135-1.502-.951c-7.73-4.893-20.17-9.723-33.795-13.122-6.162-1.537-19.264-4.29-20.258-4.256-.137.005 1.13.537 2.815 1.183m11.668-.011c16.903 3.503 29.474 8.09 41.873 15.279l3.334 1.933 7.391-.063 7.39-.062-2.71-1.323c-14.894-7.272-33.852-12.613-58.001-16.341-5.727-.885-5.517-.717.723.577m-85.445-.423c-11.216 3.872-21.365 10.611-25.788 17.125-1.238 1.822-1.607 1.615 3.405 1.913 8.991.536 17.661 1.22 25.565 2.017 5.811.586 16.6 1.913 17.148 2.11.655.234 1.255.961-13.6-16.49-6.278-7.374-5.871-6.971-6.73-6.675m68.295 1.08c-6.661 7.787-18.678 21.968-18.678 22.041 0 .051.557.005 1.238-.104 7.256-1.158 24.083-2.836 36.24-3.615 3.047-.195 6.52-.419 7.72-.497 2.579-.169 2.543-.059.792-2.382-4.874-6.467-13.744-12.334-24.467-16.181l-1.694-.608-1.151 1.346M82.145 280.214c-5.549 3.115-10.42 6.215-14.752 9.387l-2.024 1.482-.387 1.719c-.212.945-1.185 5.006-2.161 9.025s-2.422 9.987-3.213 13.263l-1.438 5.956 3.738 3.917c2.055 2.154 4.75 4.982 5.988 6.284l2.251 2.366 3.23-1.846c1.776-1.015 3.229-1.989 3.229-2.166 0-.176-.215-1.088-.477-2.026-4.078-14.601 2.108-30.038 17.214-42.958 2.23-1.908 3.421-2.826 6.821-5.258l1.048-.75-8.119.008-8.12.008-2.828 1.589m20.162.702c-16.173 12.607-23.115 28.627-18.943 43.716.409 1.476.452 1.514 1.158 1.02 3.544-2.482 29.728-14.648 43.469-20.197 6.352-2.565 6.107-2.4 5.46-3.67-3.072-6.023-2.987-13.792.219-20.177.506-1.008.92-1.868.92-1.91 0-.214-22.634-1.094-27.695-1.077l-1.65.006-2.938 2.289m177.599-1.949c-8.2.268-14.496.569-14.496.692 0 .03.413.893.918 1.918 3.137 6.369 3.334 12.957.579 19.372-.464 1.08-.79 2.017-.725 2.082.065.066 2.703 1.162 5.861 2.436 13.616 5.496 26.751 11.525 39.665 18.209 2.454 1.269 4.495 2.273 4.537 2.231.042-.042.281-.876.532-1.854 3.94-15.405-3.185-30.961-20.146-43.988l-1.895-1.456-3.055.036c-1.679.02-6.979.164-11.775.322m21.681 1.648c18.708 13.656 26.508 29.964 22.355 46.74-.331 1.336-.563 2.466-.515 2.511.047.045 1.51.907 3.251 1.916l3.166 1.834 2.491-2.594c1.37-1.427 4.068-4.257 5.996-6.288l3.505-3.694-.498-2.064c-.274-1.135-1.614-6.678-2.977-12.317-1.364-5.64-2.764-11.453-3.111-12.92l-.633-2.666-2.017-1.477c-4.48-3.281-9.692-6.587-15.023-9.531l-2.635-1.456h-16.103l2.748 2.006m-165.234.186c-2.412 5.305-2.205 11.582.569 17.254 1.727 3.532 1.44 3.345 3.804 2.471 14.44-5.342 31.369-10.381 45.123-13.432 1.811-.401 3.315-.752 3.343-.78.423-.423-2.102-2.328-3.335-2.517-7.195-1.1-29.601-3.076-42.781-3.772-2.528-.134-4.949-.289-5.381-.346-.748-.098-.81-.046-1.342 1.122m123.635-.998c-1.491.101-4.673.304-7.071.452-12.958.797-28.17 2.173-37.712 3.412l-2.474.321-.987 1.137c-.543.626-.967 1.158-.942 1.182.024.025 2.005.487 4.403 1.027 13.549 3.055 29.88 7.943 44.066 13.19l1.993.738.409-.542c3.191-4.23 4.52-12.017 2.943-17.237-.659-2.18-1.453-3.954-1.745-3.897-.095.018-1.392.116-2.883.217m-76.37 10.488c-8.173 1.935-21.919 6.293-31.932 10.124-8.46 3.237-10.26 3.96-10.26 4.127 0 .702 6.012 5.669 9.421 7.783 3.067 1.903 11.917 6.142 12.153 5.823.023-.032 5.498-6.368 12.167-14.082 6.668-7.714 12.206-14.157 12.305-14.319.25-.408.05-.38-3.854.544m28.885-.587c.249.403 22.8 26.498 23.848 27.595l.82.859 2.157-.883c6.959-2.847 12.858-6.476 17.121-10.533 2.61-2.484 2.68-2.16-.762-3.496-16.19-6.283-28.518-10.365-38.375-12.708-4.934-1.173-5.029-1.19-4.809-.834m-16.561 15.599c-2.156 3.274-5.703 8.657-7.88 11.963l-3.959 6.01.641.165c1.778.458 9.246.896 15.256.896 6.011 0 13.488-.439 15.252-.896l.637-.165-2.157-3.3c-6.171-9.442-13.619-20.624-13.735-20.624-.073 0-1.898 2.678-4.055 5.951m-63.507 2.88c-9.267 4.026-19.695 8.914-28.958 13.576-6.494 3.268-17.196 8.876-17.532 9.188-.257.238 1.338 3.194 3.182 5.898 5.438 7.972 14.194 15.486 25.36 21.76 2.164 1.216 8.254 4.262 8.985 4.494.399.126 2.961-2.726 16.329-18.186 8.721-10.085 16.593-19.162 17.494-20.171.9-1.009 1.596-1.865 1.546-1.902-.049-.037-1.946-.976-4.215-2.086-7.471-3.655-13.47-8.173-17.48-13.163-.927-1.154-.594-1.196-4.711.592m130.373-.522c-3.827 4.821-9.978 9.439-17.499 13.136l-4.19 2.06 8.551 9.89c4.703 5.44 9.51 10.997 10.684 12.349 1.173 1.352 5.187 5.989 8.921 10.305 5.892 6.811 6.854 7.825 7.295 7.687 5.989-1.876 20.306-11.204 26.785-17.452 4.923-4.747 11.573-13.874 10.703-14.688-1.85-1.73-33.984-17.408-47.657-23.252-2.935-1.254-2.628-1.251-3.593-.035m-85.36 25.682c-1.644 2.501-6.796 10.328-11.449 17.394-16.471 25.008-14.538 21.773-13.212 22.112 7.214 1.846 18.051 3.549 28.71 4.514 15.198 1.375 36.879.773 50.56-1.402 7.397-1.177 15.983-2.827 16.286-3.129.074-.074-2.545-4.2-5.818-9.17-19.937-30.269-22.827-34.648-22.959-34.797-.033-.038-1.532.143-3.331.403-10.798 1.556-23.27 1.438-34.856-.329l-.943-.144-2.988 4.548m-100.539 2.505c-.806.475-1.801 1.053-2.211 1.283l-.747.419 1.489 1.585c.819.871 2.61 2.752 3.979 4.18 5.158 5.379 7.583 7.915 12.159 12.722 2.59 2.72 5.882 6.168 7.315 7.66 1.433 1.493 3.766 3.934 5.185 5.425 1.419 1.491 3.756 3.917 5.193 5.39l2.614 2.68 3.718-4.284c2.045-2.356 3.68-4.316 3.633-4.354-.046-.039-1.304-.642-2.794-1.342-17.477-8.206-30.994-19.53-36.895-30.912-.819-1.581-.746-1.568-2.638-.452m243.546.452c-4.153 8.039-13.191 17.102-23.571 23.636-4.298 2.705-14.604 8.232-15.379 8.247-.916.018-.766.497.672 2.151.83.954 2.501 2.875 3.714 4.268 1.213 1.394 2.237 2.534 2.276 2.534.091 0 3.563-3.593 10.361-10.725 2.966-3.111 6.513-6.825 7.881-8.252 2.335-2.434 6.323-6.609 15.631-16.364 2.157-2.26 3.873-4.187 3.814-4.283-.121-.195-4.33-2.568-4.555-2.567-.079 0-.459.61-.844 1.355m-178.003 50.191c-7.341 11.105-8.569 13.006-8.569 13.27 0 .204 3.04 3.512 18.954 20.623 3.252 3.498 7.167 7.707 8.699 9.354 1.856 1.996 2.996 3.037 3.418 3.122 1.507.303 10.412 1.096 17.957 1.599 5.885.393 27.274.389 33.235-.006 5.966-.395 12.017-.902 16.146-1.353l3.3-.36 1.414-1.466c.778-.806 4.269-4.54 7.759-8.297 3.489-3.757 7.577-8.157 9.085-9.777 1.508-1.621 4.265-4.591 6.127-6.6 1.861-2.01 4.004-4.306 4.762-5.102.758-.797 1.378-1.572 1.378-1.723 0-.282-4.502-7.236-10.64-16.437l-3.489-5.23-.773.223c-9.688 2.798-30.57 5.265-47.09 5.562-18.558.334-44.067-2.288-55.683-5.723-.323-.095-1.587 1.661-5.99 8.321m33.641 58.914c.593.631 2.551 2.739 4.35 4.683 1.8 1.945 4.506 4.862 6.014 6.482 1.507 1.621 5.105 5.492 7.994 8.604 2.89 3.111 5.356 5.695 5.481 5.742.125.047 1.051-.801 2.059-1.885 15.306-16.475 22.603-24.361 22.567-24.39-.024-.019-1.688.075-3.698.208-5.26.349-31.183.34-36.653-.012-2.463-.159-5.539-.354-6.835-.434l-2.357-.146 1.078 1.148"/>
    <path d="M0 282.852v282.852h400V0H0v282.852M295.019 77.077c.793 3.176 2.089 8.427 2.88 11.668.791 3.241 2.402 9.817 3.58 14.614 1.178 4.797 2.56 10.445 3.072 12.551.511 2.107 1.348 5.554 1.859 7.661.511 2.107 1.789 7.331 2.841 11.609 1.051 4.278 2.43 9.9 3.064 12.492 1.959 8.012 3.908 15.969 5.659 23.1 1.682 6.854 3.142 12.827 5.067 20.742 1.184 4.864 3.121 12.779 5.539 22.629.924 3.759 2.196 8.957 2.828 11.549.633 2.593 1.905 7.791 2.829 11.55.923 3.76 2.195 8.957 2.826 11.55 1.464 6.014 2.912 11.94 4.984 20.389.906 3.695 2.165 8.839 2.798 11.432.632 2.593 1.905 7.79 2.828 11.55.923 3.759 2.249 9.169 2.946 12.021.698 2.852 1.969 8.049 2.826 11.55 1.629 6.658 2.629 10.817 2.756 11.456.079.398-.49 1.053-5.818 6.71-1.815 1.927-5.097 5.416-7.295 7.754-2.197 2.338-5.44 5.789-7.207 7.668-1.767 1.88-7.44 7.926-12.606 13.436-5.166 5.51-10.839 11.555-12.606 13.435-3.3 3.51-10.114 10.768-13.059 13.907-.911.972-2.563 2.725-3.67 3.894-3.271 3.455-4.963 5.257-12.385 13.195-3.879 4.149-7.914 8.444-8.965 9.546-1.051 1.102-3.545 3.754-5.542 5.893-1.996 2.139-4.383 4.685-5.303 5.657-1.862 1.967-7.566 8.041-12.949 13.789-1.943 2.075-4.286 4.567-5.208 5.539-.921.973-5.107 5.428-9.301 9.9-4.194 4.473-9.069 9.67-10.835 11.55-7.669 8.165-11.617 12.366-14.735 15.675-1.832 1.944-4.487 4.782-5.901 6.305-2.868 3.091-2.844 3.079-3.788 1.98-.65-.758-12.287-13.178-16.707-17.831-1.17-1.232-6.947-7.384-12.838-13.672-5.891-6.287-11.414-12.174-12.274-13.082-1.954-2.063-11.348-12.062-18.489-19.681-7.401-7.897-8.423-8.983-10.748-11.428-1.112-1.169-5.296-5.626-9.297-9.904s-7.978-8.521-8.838-9.429c-.859-.907-3.404-3.612-5.654-6.01-2.251-2.398-5.537-5.899-7.304-7.779-1.766-1.879-6.645-7.077-10.84-11.549-4.196-4.473-9.128-9.723-10.959-11.668-2.806-2.979-4.988-5.307-10.86-11.587-.383-.41-5.151-5.488-10.596-11.284-6.23-6.633-9.871-10.682-9.821-10.923.141-.684 1.846-7.715 4.152-17.119 1.239-5.056 2.992-12.216 3.895-15.911.903-3.695 2.553-10.43 3.666-14.967 1.114-4.538 2.437-9.947 2.941-12.022.503-2.074 1.724-7.059 2.711-11.078.988-4.019 2.314-9.428 2.946-12.021.632-2.593 1.798-7.366 2.591-10.607.793-3.241 1.854-7.59 2.358-9.664.504-2.075 1.659-6.795 2.565-10.489 3.993-16.276 4.836-19.719 5.921-24.161.633-2.592 2.152-8.798 3.376-13.789 1.223-4.991 2.882-11.779 3.687-15.085.805-3.306 2.362-9.67 3.46-14.143 1.098-4.472 2.409-9.829 2.913-11.903.503-2.074 1.724-7.06 2.711-11.078.987-4.019 2.365-9.641 3.062-12.493.696-2.852 1.85-7.572 2.564-10.489.714-2.917 1.829-7.478 2.479-10.136 3.91-16.003 4.519-18.454 4.637-18.646.077-.124 38.635-.187 93.635-.152l93.504.059 1.442 5.775M112.548 83.5c-.101.279-3.598 14.462-5.39 21.862-.455 1.88-1.728 7.078-2.828 11.55-1.1 4.473-2.373 9.67-2.828 11.55-.454 1.88-1.568 6.441-2.474 10.136-.907 3.694-2.127 8.68-2.713 11.078-1.35 5.531-3.707 15.159-5.567 22.746-.795 3.241-2.067 8.438-2.828 11.55-.761 3.111-1.981 8.096-2.71 11.078-.73 2.982-1.791 7.331-2.359 9.664-.567 2.334-1.839 7.531-2.826 11.55-.988 4.019-2.314 9.428-2.948 12.021-1.708 6.991-3.768 15.404-5.657 23.1-.923 3.759-2.247 9.169-2.944 12.021-.696 2.852-1.757 7.201-2.358 9.664-3.693 15.128-7.048 28.839-10.585 43.253L54 322.569l.884.943c.486.519 1.683 1.791 2.661 2.829.977 1.037 4.412 4.696 7.632 8.132 3.221 3.435 7.354 7.837 9.185 9.782 1.831 1.944 4.172 4.44 5.203 5.545 2.309 2.478 19.42 20.708 21.564 22.975.858.908 3.401 3.613 5.65 6.011 2.249 2.398 5.686 6.058 7.638 8.132 4.145 4.405 4.76 5.059 12.509 13.318 3.224 3.435 7.306 7.784 9.073 9.664 1.766 1.88 6.596 7.024 10.733 11.432 4.137 4.408 8.967 9.552 10.735 11.432 1.767 1.879 6.694 7.13 10.95 11.667 4.256 4.538 8.542 9.1 9.525 10.138.983 1.038 6.347 6.745 11.92 12.682l10.134 10.795 1.417-1.486c.779-.817 2.907-3.077 4.729-5.022 4.085-4.362 10.967-11.693 13.054-13.907.855-.907 3.242-3.453 5.304-5.657 2.062-2.204 4.556-4.856 5.541-5.893.986-1.037 4.175-4.431 7.088-7.542 2.912-3.112 6.993-7.462 9.068-9.667 2.076-2.205 5.365-5.704 7.309-7.776 1.945-2.072 4.437-4.723 5.539-5.893 1.102-1.169 3.443-3.663 5.202-5.541 4.754-5.077 17.995-19.186 21.676-23.097 1.769-1.88 6.753-7.184 11.076-11.786 4.322-4.602 9.304-9.906 11.07-11.785 1.765-1.88 4.106-4.375 5.202-5.545 1.095-1.17 5.173-5.516 9.063-9.659 3.889-4.143 10.456-11.141 14.593-15.552 4.137-4.41 7.875-8.393 8.305-8.85l.783-.831-1.618-6.594c-.89-3.626-2.424-9.882-3.408-13.901-.983-4.018-2.646-10.807-3.694-15.085-1.049-4.278-2.319-9.476-2.823-11.55s-1.724-7.059-2.711-11.078c-1.899-7.728-3.716-15.156-5.42-22.157-.568-2.333-1.841-7.531-2.828-11.55-.988-4.019-2.207-9.004-2.71-11.078-.504-2.074-1.617-6.635-2.476-10.136-.858-3.5-2.131-8.697-2.829-11.549-1.671-6.827-3.913-15.971-6.127-24.986-.987-4.019-2.102-8.58-2.476-10.135-.375-1.556-1.331-5.48-2.124-8.721-.794-3.241-2.066-8.439-2.827-11.55-2.124-8.686-3.77-15.408-6.233-25.457-1.24-5.056-3.381-13.807-4.759-19.446-1.377-5.639-2.729-11.155-3.004-12.257l-.5-2.003-87.396-.06c-69.796-.047-87.419 0-87.504.236m78.012 7.373c1.93.503 2.815.964 4.092 2.133l1.105 1.012-1.22 1.233-1.221 1.233-.845-.742c-4.334-3.805-10.851-1.212-10.849 4.317.002 5.602 6.495 8.589 10.328 4.752l1.214-1.216-2.71-.118-2.711-.118v-3.3l4.687-.064 4.688-.064-.119 1.657c-.667 9.323-13.816 11.415-18.04 2.869-3.772-7.632 3.184-15.776 11.601-13.584m71.61.521c3.794 1.776 5.763 5.132 5.552 9.467-.53 10.898-16.005 12.281-18.715 1.673-1.975-7.735 6.006-14.489 13.163-11.14m-124.515 5.942c1.231 3.492 2.312 6.276 2.402 6.186.09-.09.601-1.383 1.136-2.874.535-1.491 1.17-3.241 1.411-3.889.241-.648.8-2.186 1.242-3.418l.804-2.239 1.806-.069c.993-.038 1.806-.017 1.806.047 0 .131-6.028 16.939-6.37 17.759-.2.482-.378.53-1.934.528l-1.714-.003-1.137-3.238c-1.764-5.028-4.675-13.203-5.286-14.847-.082-.22.359-.295 1.742-.294l1.852.001 2.24 6.35m26.871 2.841v9.192h-3.536V90.984h3.536v9.193m49.263 0v9.192h-3.536V90.984h3.536v9.193m17.734-1.709l.062 7.484 2.534.067 2.534.066v3.284h-8.721V90.984h3.529l.062 7.484m23.958-3.842c-4.22 2.245-4.325 8.577-.182 10.943 6.852 3.913 12.66-6.384 6.064-10.75-1.431-.947-4.289-1.041-5.882-.193m-128.974 3.25c2.577 2.577-.23 6.637-3.568 5.161-1.236-.547-1.864-1.573-1.842-3.012.043-2.845 3.386-4.173 5.41-2.149m150.948-.464c3.196 2.135.833 7.086-2.732 5.725-3.336-1.274-2.494-6.26 1.058-6.26.515 0 1.201.219 1.674.535M131.4 116.802c1.654.431 3.316 1.301 4.626 2.422l.956.819-1.128 1.145c-1.315 1.336-1.322 1.337-2.29.52-4.227-3.57-10.385-1.443-10.923 3.772-.607 5.876 6.287 9.112 10.859 5.098l.889-.78 1.22 1.233 1.221 1.233-1.033.928c-5.583 5.016-14.625 2.54-16.43-4.5-1.888-7.361 4.644-13.815 12.033-11.89m28.75.427c6.274 2.872 7.714 11.535 2.671 16.069-6.692 6.017-17.21.367-15.946-8.566.878-6.201 7.699-10.056 13.275-7.503m116.441 0c6.166 2.823 7.662 11.044 2.878 15.824-5.477 5.474-14.958 2.262-16.161-5.475-1.148-7.38 6.594-13.412 13.283-10.349m-92.755 5.281c1.997 3.079 3.772 5.754 3.945 5.944.264.289.316-.622.316-5.599v-5.943h3.535v18.386h-3.478l-3.859-5.926-3.859-5.925-.063 5.925-.063 5.926h-3.527v-18.386h3.423l3.63 5.598m28.962-3.889l-.07 1.709-2.769.066-2.77.067v3.285h5.657v3.3h-5.657v8.25h-3.535v-18.386H212.867l-.069 1.709m13.955 7.484v9.193h-3.536v-18.386h3.536v9.193m21.077-8.487c5.683 2.184 7.176 10.944 2.633 15.449-1.9 1.884-2.407 2.028-7.623 2.167l-4.301.115v-18.497l3.948.115c3.363.098 4.155.195 5.343.651m-93.911 2.734c-3.796 1.641-4.779 7.171-1.803 10.149 4.719 4.722 12.171-.288 9.811-6.596-1.191-3.183-4.978-4.864-8.008-3.553m116.44 0c-5.117 2.213-4.557 10.206.825 11.775 5.913 1.723 10.163-6.027 5.746-10.477-1.582-1.595-4.536-2.178-6.571-1.298m-28.285 5.906v5.81l2.023-.143c3.318-.234 4.778-1.4 5.296-4.229.795-4.343-1.545-7.243-5.846-7.247l-1.473-.001v5.81m45.021 15.529c0 .069-12.767 19.772-28.371 43.783-15.603 24.012-31.708 48.802-35.788 55.09l-7.418 11.432-1.63-.047c-9.712-.277-21.035-.285-24.817-.018l-4.329.306-.646-.945c-.355-.52-4.02-6.143-8.143-12.496-4.123-6.352-13.49-20.778-20.816-32.056-7.326-11.279-14.928-23-16.894-26.046-1.966-3.047-8.418-12.997-14.338-22.112-5.92-9.115-10.764-16.673-10.764-16.795 0-.138 32.868-.221 86.977-.221 47.837 0 86.977.056 86.977.125m-87.385 30.294c-.121.447-.94 3.474-1.819 6.727l-1.599 5.915-6.513 1.724c-3.583.949-6.598 1.796-6.699 1.884-.19.163 1.721 1.085 9.059 4.37l4.159 1.863 1.107 3.661c2.366 7.831 2.535 8.33 2.712 7.998.096-.182.948-2.881 1.891-6l1.716-5.669 5.209-2.333c2.865-1.283 5.943-2.673 6.84-3.089l1.63-.756-.805-.221c-.443-.122-3.521-.942-6.84-1.823l-6.036-1.601-1.719-6.39c-1.973-7.333-1.99-7.379-2.293-6.26m-101.772 6.881c4.721 5.584 13.18 15.534 29.699 34.933 6.612 7.765 14.781 17.361 18.154 21.325 3.373 3.964 8.597 10.101 11.609 13.638 3.011 3.536 5.476 6.511 5.476 6.611 0 .1-1.194.314-2.652.476-32.067 3.555-68.674 14.563-91.371 27.476-1.823 1.037-1.839 1.026-1.36-.975.21-.879.856-3.56 1.435-5.958.578-2.398 1.589-6.588 2.245-9.311.656-2.722 1.719-7.124 2.362-9.782.644-2.657 1.656-6.847 2.249-9.31.594-2.463 1.44-5.964 1.881-7.779.44-1.815 1.08-4.466 1.421-5.892.63-2.636 2.466-10.237 4.584-18.975.644-2.658 1.604-6.635 2.134-8.839 1.372-5.706 1.987-8.258 5.05-20.946 1.497-6.204 2.723-11.322 2.723-11.373 0-.383.851.532 4.361 4.681m208.599-4.242c.161.694 1.986 8.293 3.071 12.787.469 1.945 1.582 6.559 2.472 10.254.891 3.695 1.991 8.255 2.446 10.135.455 1.88 1.157 4.797 1.562 6.482.404 1.686 1.147 4.762 1.65 6.836.503 2.074 1.181 4.885 1.506 6.246.326 1.361 1.12 4.65 1.765 7.307.644 2.658 1.4 5.787 1.679 6.954.279 1.166 1.137 4.72 1.905 7.896 3.035 12.535 3.768 15.573 4.583 18.975.466 1.944 1.414 5.869 2.108 8.721 1.388 5.71 1.651 6.953 1.47 6.953-.067 0-.795-.384-1.618-.853-22.565-12.878-59.254-23.909-91.36-27.468-1.458-.162-2.652-.366-2.652-.455 0-.088 4.997-6.033 11.103-13.211 6.107-7.178 16.066-18.885 22.131-26.015 6.066-7.13 14.552-17.101 18.859-22.157 4.307-5.056 9.861-11.598 12.342-14.538 4.78-5.664 4.787-5.672 4.978-4.849m-197.689 43.454c-.066.116-.892 3.075-1.836 6.576-.944 3.5-1.793 6.45-1.887 6.555-.143.162-4.946 1.519-11.882 3.357-1.148.304-1.531.494-1.296.64.183.115 3.24 1.51 6.792 3.102l6.458 2.893 1.615 5.28c.889 2.904 1.682 5.571 1.762 5.927.207.914.439.808.773-.353 1.626-5.653 3.206-10.5 3.523-10.805.214-.206 3.2-1.624 6.635-3.152 7.403-3.291 7.009-3.013 5.018-3.54-6.874-1.821-11.709-3.187-11.852-3.349-.093-.105-.622-1.888-1.177-3.963-2.195-8.21-2.53-9.371-2.646-9.168m181.579 2.038c-2.074 7.818-2.94 10.928-3.092 11.093-.148.162-5.009 1.534-11.858 3.349-1.982.525-2.299.287 4.343 3.254 3.064 1.369 6.034 2.707 6.6 2.973l1.028.485 1.763 5.893c.969 3.242 1.821 5.894 1.893 5.894.072 0 .912-2.597 1.868-5.771.956-3.174 1.907-5.914 2.114-6.088.207-.174 3.187-1.568 6.623-3.097 5.847-2.602 7.031-3.187 6.47-3.199-.529-.01-13.135-3.504-13.297-3.684-.099-.11-.79-2.481-1.535-5.268-.746-2.787-1.52-5.678-1.721-6.423-.478-1.774-.587-1.72-1.199.589m-80.677 34.819c1.863.12 3.436.269 3.498.33.111.112-12.44 19.544-13.018 20.155-.335.355.185 1.108-9.001-13.019-2.517-3.87-4.524-7.088-4.46-7.152.476-.477 16.967-.702 22.981-.314m-60.074 4.252c-16.967 3.517-30.688 8.572-42.529 15.668l-2.576 1.543-7.442-.062-7.441-.062 2.71-1.321c15.422-7.519 32.88-12.365 60.106-16.686 3.509-.556 2.129-.108-2.828.92m14.594-1.098c-.054.046-1.318.535-2.809 1.086-9.455 3.5-18.716 9.832-23.822 16.288l-1.516 1.916-3.536-.134c-1.945-.073-7.142-.246-11.55-.382-4.408-.137-9.008-.31-10.224-.384l-2.209-.135 1.502-.954c7.609-4.831 20.248-9.727 33.875-13.123 8.255-2.058 20.851-4.651 20.289-4.178m76.639.846c21.837 4.209 38.455 9.792 48.985 16.458l1.502.951-2.209.135c-1.216.074-5.816.247-10.224.384-4.408.136-9.605.31-11.55.386l-3.536.138-1.06-1.382c-5.133-6.687-14.179-12.981-24.161-16.807-1.685-.646-2.952-1.178-2.815-1.183.136-.005 2.417.409 5.068.92m8.692-.325c24.149 3.728 43.107 9.069 58.001 16.341l2.71 1.323-7.39.062-7.391.063-3.334-1.933c-12.399-7.189-24.97-11.776-41.873-15.279-6.24-1.294-6.45-1.462-.723-.577m-77.992 6.829c14.855 17.451 14.255 16.724 13.6 16.49-.548-.197-11.337-1.524-17.148-2.11-7.904-.797-16.574-1.481-25.565-2.017-5.012-.298-4.643-.091-3.405-1.913 4.423-6.514 14.572-13.253 25.788-17.125.859-.296.452-.699 6.73 6.675m68.108-4.903c8.737 3.584 16.519 9.111 20.769 14.751 1.751 2.323 1.787 2.213-.792 2.382-1.2.078-4.673.302-7.72.497-12.157.779-28.984 2.457-36.24 3.615-.681.109-1.238.155-1.238.104 0-.073 12.017-14.254 18.678-22.041l1.151-1.346 1.694.608c.932.335 2.596.978 3.698 1.43m-139.553 18.727c-3.4 2.432-4.591 3.35-6.821 5.258-15.106 12.92-21.292 28.357-17.214 42.958.262.938.477 1.85.477 2.026 0 .177-1.453 1.151-3.229 2.166l-3.23 1.846-2.251-2.366c-1.238-1.302-3.933-4.13-5.988-6.284l-3.738-3.917 1.438-5.956c.791-3.276 2.237-9.244 3.213-13.263s1.949-8.08 2.161-9.025l.387-1.719 2.024-1.482c4.332-3.172 9.203-6.272 14.752-9.387l2.828-1.589 8.12-.008 8.119-.008-1.048.75m19.105-.398c10.335.332 15.321.572 15.321.737 0 .042-.414.902-.92 1.91-3.206 6.385-3.291 14.154-.219 20.177.647 1.27.892 1.105-5.46 3.67-8.122 3.28-14.754 6.161-23.1 10.034-4.019 1.866-19.674 9.676-20.369 10.163-.706.494-.749.456-1.158-1.02-4.172-15.089 2.77-31.109 18.943-43.716l2.938-2.289 1.65-.006c.907-.003 6.476.15 12.374.34m177.362 1.104c16.961 13.027 24.086 28.583 20.146 43.988-.251.978-.49 1.812-.532 1.854-.042.042-2.083-.962-4.537-2.231-12.914-6.684-26.049-12.713-39.665-18.209-3.158-1.274-5.796-2.37-5.861-2.436-.065-.065.261-1.002.725-2.082 2.755-6.415 2.558-13.003-.579-19.372-.505-1.025-.918-1.888-.918-1.918 0-.192 19.116-.93 26.271-1.014l3.055-.036 1.895 1.456m20.946 0c5.331 2.944 10.543 6.25 15.023 9.531l2.017 1.477.633 2.666c.347 1.467 1.747 7.28 3.111 12.92 1.363 5.639 2.703 11.182 2.977 12.317l.498 2.064-3.505 3.694c-1.928 2.031-4.626 4.861-5.996 6.288l-2.491 2.594-3.166-1.834c-1.741-1.009-3.204-1.871-3.251-1.916-.048-.045.184-1.175.515-2.511 4.153-16.776-3.647-33.084-22.355-46.74l-2.748-2.006h16.103l2.635 1.456m-174.501-.04c13.18.696 35.586 2.672 42.781 3.772 1.233.189 3.758 2.094 3.335 2.517-.028.028-1.532.379-3.343.78-13.754 3.051-30.683 8.09-45.123 13.432-2.364.874-2.077 1.061-3.804-2.471-2.774-5.672-2.981-11.949-.569-17.254.532-1.168.594-1.22 1.342-1.122.432.057 2.853.212 5.381.346m120.439.453c2.91 5.704 2.057 15.072-1.842 20.242l-.409.542-1.993-.738c-14.186-5.247-30.517-10.135-44.066-13.19-2.398-.54-4.379-1.002-4.403-1.027-.025-.024.399-.556.942-1.182l.987-1.137 2.474-.321c9.542-1.239 24.754-2.615 37.712-3.412 5.275-.325 9.72-.623 9.954-.669.094-.019.384.383.644.892m-76.043 9.269c-.099.162-5.637 6.605-12.305 14.319-6.669 7.714-12.144 14.05-12.167 14.082-.236.319-9.086-3.92-12.153-5.823-3.409-2.114-9.421-7.081-9.421-7.783 0-.325 13.071-5.275 21.351-8.086 11.407-3.874 25.266-7.639 24.695-6.709m29.84.791c9.857 2.343 22.185 6.425 38.375 12.708 3.442 1.336 3.372 1.012.762 3.496-4.263 4.057-10.162 7.686-17.121 10.533l-2.157.883-.82-.859c-1.048-1.097-23.599-27.192-23.848-27.595-.22-.356-.125-.339 4.809.834m-11.46 17.476c3.148 4.764 6.694 10.147 7.88 11.962l2.157 3.3-.637.165c-1.764.457-9.241.896-15.252.896-6.01 0-13.478-.438-15.256-.896l-.641-.165 3.959-6.01c2.177-3.306 5.724-8.689 7.88-11.963 2.157-3.273 3.982-5.951 4.055-5.951.073 0 2.708 3.898 5.855 8.662m-68.706-.423c4.01 4.99 10.009 9.508 17.48 13.163 2.269 1.11 4.166 2.049 4.215 2.086.05.037-.646.893-1.546 1.902-.901 1.009-8.773 10.086-17.494 20.171-13.368 15.46-15.93 18.312-16.329 18.186-.731-.232-6.821-3.278-8.985-4.494-11.166-6.274-19.922-13.788-25.36-21.76-1.844-2.704-3.439-5.66-3.182-5.898 1.273-1.18 26.331-13.689 38.24-19.089 12.503-5.669 11.974-5.495 12.961-4.267m129.255.105c13.673 5.844 45.807 21.522 47.657 23.252.87.814-5.78 9.941-10.703 14.688-6.479 6.248-20.796 15.576-26.785 17.452-.441.138-1.403-.876-7.295-7.687-3.734-4.316-7.748-8.953-8.921-10.305-1.174-1.352-5.981-6.909-10.684-12.349l-8.551-9.89 4.19-2.06c7.521-3.697 13.672-8.315 17.499-13.136.965-1.216.658-1.219 3.593.035m-81.604 21.715c9.787 1.299 21.813 1.244 31.438-.143 1.799-.26 3.298-.441 3.331-.403.132.149 3.022 4.528 22.959 34.797 3.273 4.97 5.892 9.096 5.818 9.17-.303.302-8.889 1.952-16.286 3.129-13.681 2.175-35.362 2.777-50.56 1.402-10.659-.965-21.496-2.668-28.71-4.514-1.326-.339-3.259 2.896 13.212-22.112 4.653-7.066 9.805-14.893 11.449-17.394l2.988-4.548.943.144c.518.079 2.056.292 3.418.472M79.547 336.3c5.901 11.382 19.418 22.706 36.895 30.912 1.49.7 2.748 1.303 2.794 1.342.047.038-1.588 1.998-3.633 4.354l-3.718 4.284-2.614-2.68c-1.437-1.473-3.774-3.899-5.193-5.39-1.419-1.491-3.752-3.932-5.185-5.425-1.433-1.492-4.725-4.94-7.315-7.66-4.576-4.807-7.001-7.343-12.159-12.722-1.369-1.428-3.16-3.309-3.979-4.18l-1.489-1.585.747-.419c.41-.23 1.405-.808 2.211-1.283 1.892-1.116 1.819-1.129 2.638.452m244.048-.159c1.183.659 2.2 1.276 2.259 1.371.059.096-1.657 2.023-3.814 4.283-9.308 9.755-13.296 13.93-15.631 16.364-1.368 1.427-4.915 5.141-7.881 8.252-6.798 7.132-10.27 10.725-10.361 10.725-.039 0-1.063-1.14-2.276-2.534-1.213-1.393-2.884-3.314-3.714-4.268-1.438-1.654-1.588-2.133-.672-2.151.775-.015 11.081-5.542 15.379-8.247 10.38-6.534 19.418-15.597 23.571-23.636.841-1.628.528-1.612 3.14-.159M152.78 379.128c27.027 5.754 57.844 6.385 85.641 1.754 3.199-.533 11.621-2.212 12.794-2.551l.773-.223 3.489 5.23c6.138 9.201 10.64 16.155 10.64 16.437 0 .151-.62.926-1.378 1.723-.758.796-2.901 3.092-4.762 5.102-1.862 2.009-4.619 4.979-6.127 6.6-1.508 1.62-5.596 6.02-9.085 9.777-3.49 3.757-6.981 7.491-7.759 8.297l-1.414 1.466-3.3.36c-4.129.451-10.18.958-16.146 1.353-5.961.395-27.35.399-33.235.006-7.545-.503-16.45-1.296-17.957-1.599-.422-.085-1.562-1.126-3.418-3.122-1.532-1.647-5.447-5.856-8.699-9.354-15.914-17.111-18.954-20.419-18.954-20.623 0-.776 14.122-21.72 14.559-21.591.225.067 2.177.498 4.338.958m31.427 65.709c5.47.352 31.393.361 36.653.012 2.01-.133 3.674-.227 3.698-.208.036.029-7.261 7.915-22.567 24.39-1.008 1.084-1.934 1.932-2.059 1.885-.125-.047-2.591-2.631-5.481-5.742-2.889-3.112-6.487-6.983-7.994-8.604-1.508-1.62-4.214-4.537-6.014-6.482-1.799-1.944-3.757-4.052-4.35-4.683l-1.078-1.148 2.357.146c1.296.08 4.372.275 6.835.434" fill="#fff"/>
  </g>
</svg>
